<svg width="314" height="31" viewBox="0 0 314 31" fill="none" xmlns="http://www.w3.org/2000/svg">
<path d="M7.13412 22.533C5.78078 22.533 4.56278 22.301 3.48012 21.837C2.39745 21.3536 1.54678 20.677 0.928115 19.807C0.309449 18.937 0.000115294 17.922 0.000115294 16.762H3.53812C3.61545 17.632 3.95378 18.3473 4.55312 18.908C5.17178 19.4686 6.03212 19.749 7.13412 19.749C8.27478 19.749 9.16412 19.4783 9.80212 18.937C10.4401 18.3763 10.7591 17.661 10.7591 16.791C10.7591 16.1143 10.5561 15.5633 10.1501 15.138C9.76345 14.7126 9.27045 14.384 8.67112 14.152C8.09112 13.92 7.27912 13.6686 6.23512 13.398C4.92045 13.05 3.84745 12.702 3.01612 12.354C2.20412 11.9866 1.50812 11.426 0.928115 10.672C0.348115 9.91796 0.0581153 8.91262 0.0581153 7.65595C0.0581153 6.49595 0.348115 5.48096 0.928115 4.61096C1.50812 3.74096 2.32012 3.07396 3.36412 2.60996C4.40812 2.14595 5.61645 1.91395 6.98912 1.91395C8.94178 1.91395 10.5368 2.40695 11.7741 3.39295C13.0308 4.35962 13.7268 5.69362 13.8621 7.39495H10.2081C10.1501 6.66029 9.80212 6.03196 9.16412 5.50995C8.52612 4.98795 7.68512 4.72695 6.64112 4.72695C5.69378 4.72695 4.92045 4.96862 4.32112 5.45196C3.72178 5.93529 3.42212 6.63129 3.42212 7.53995C3.42212 8.15862 3.60578 8.67096 3.97312 9.07696C4.35978 9.46362 4.84312 9.77296 5.42312 10.005C6.00312 10.237 6.79578 10.4883 7.80112 10.759C9.13512 11.1263 10.2178 11.4936 11.0491 11.861C11.8998 12.2283 12.6151 12.7986 13.1951 13.572C13.7944 14.326 14.0941 15.341 14.0941 16.617C14.0941 17.6416 13.8138 18.6083 13.2531 19.517C12.7118 20.4256 11.9094 21.1603 10.8461 21.721C9.80212 22.2623 8.56478 22.533 7.13412 22.533ZM24.3171 14.355L31.6831 22.33H27.2171L21.3011 15.457V22.33H17.9951V0.869956H21.3011V13.34L27.1011 6.35096H31.6831L24.3171 14.355ZM40.9837 22.591C39.4757 22.591 38.1127 22.2526 36.8947 21.576C35.6767 20.88 34.7197 19.9133 34.0237 18.676C33.3277 17.4193 32.9797 15.9693 32.9797 14.326C32.9797 12.702 33.3374 11.2616 34.0527 10.005C34.768 8.74829 35.7444 7.78162 36.9817 7.10496C38.219 6.42829 39.6014 6.08996 41.1287 6.08996C42.656 6.08996 44.0384 6.42829 45.2757 7.10496C46.513 7.78162 47.4894 8.74829 48.2047 10.005C48.92 11.2616 49.2777 12.702 49.2777 14.326C49.2777 15.95 48.9104 17.3903 48.1757 18.647C47.441 19.9036 46.4357 20.88 45.1597 21.576C43.903 22.2526 42.511 22.591 40.9837 22.591ZM40.9837 19.72C41.8344 19.72 42.627 19.517 43.3617 19.111C44.1157 18.705 44.7247 18.096 45.1887 17.284C45.6527 16.472 45.8847 15.486 45.8847 14.326C45.8847 13.166 45.6624 12.1896 45.2177 11.397C44.773 10.585 44.1834 9.97596 43.4487 9.56996C42.714 9.16396 41.9214 8.96096 41.0707 8.96096C40.22 8.96096 39.4274 9.16396 38.6927 9.56996C37.9774 9.97596 37.407 10.585 36.9817 11.397C36.5564 12.1896 36.3437 13.166 36.3437 14.326C36.3437 16.0466 36.7787 17.3806 37.6487 18.328C38.538 19.256 39.6497 19.72 40.9837 19.72ZM55.8518 8.67096C56.3352 7.85896 56.9732 7.23062 57.7659 6.78596C58.5779 6.32196 59.5349 6.08996 60.6368 6.08996V9.51196H59.7959C58.5005 9.51196 57.5145 9.84062 56.8378 10.498C56.1805 11.1553 55.8518 12.296 55.8518 13.92V22.33H52.5458V6.35096H55.8518V8.67096ZM84.2299 2.17495V4.87195H78.8649V22.33H75.5589V4.87195H70.1649V2.17495H84.2299ZM102.223 13.949C102.223 14.5483 102.184 15.0896 102.107 15.573H89.8981C89.9947 16.849 90.4684 17.8736 91.3191 18.647C92.1697 19.4203 93.2137 19.807 94.4511 19.807C96.2297 19.807 97.4864 19.0626 98.2211 17.574H101.788C101.305 19.0433 100.425 20.2516 99.1491 21.199C97.8924 22.127 96.3264 22.591 94.4511 22.591C92.9237 22.591 91.5511 22.2526 90.3331 21.576C89.1344 20.88 88.1871 19.9133 87.4911 18.676C86.8144 17.4193 86.4761 15.9693 86.4761 14.326C86.4761 12.6826 86.8047 11.2423 87.4621 10.005C88.1387 8.74829 89.0764 7.78162 90.2751 7.10496C91.4931 6.42829 92.8851 6.08996 94.4511 6.08996C95.9591 6.08996 97.3027 6.41862 98.4821 7.07596C99.6614 7.73329 100.58 8.66129 101.237 9.85996C101.894 11.0393 102.223 12.4023 102.223 13.949ZM98.7721 12.905C98.7527 11.687 98.3177 10.7106 97.4671 9.97596C96.6164 9.24129 95.5627 8.87396 94.3061 8.87396C93.1654 8.87396 92.1891 9.24129 91.3771 9.97596C90.5651 10.6913 90.0817 11.6676 89.9271 12.905H98.7721ZM108.783 8.67096C109.266 7.85896 109.904 7.23062 110.697 6.78596C111.509 6.32196 112.466 6.08996 113.568 6.08996V9.51196H112.727C111.431 9.51196 110.445 9.84062 109.769 10.498C109.111 11.1553 108.783 12.296 108.783 13.92V22.33H105.477V6.35096H108.783V8.67096ZM120.463 9.04796V17.893C120.463 18.4923 120.599 18.9273 120.869 19.198C121.159 19.4493 121.643 19.575 122.319 19.575H124.349V22.33H121.739C120.251 22.33 119.11 21.982 118.317 21.286C117.525 20.59 117.128 19.459 117.128 17.893V9.04796H115.243V6.35096H117.128V2.37796H120.463V6.35096H124.349V9.04796H120.463ZM129.078 4.23396C128.479 4.23396 127.976 4.03096 127.57 3.62495C127.164 3.21896 126.961 2.71629 126.961 2.11696C126.961 1.51762 127.164 1.01496 127.57 0.608956C127.976 0.202955 128.479 -4.51207e-05 129.078 -4.51207e-05C129.658 -4.51207e-05 130.151 0.202955 130.557 0.608956C130.963 1.01496 131.166 1.51762 131.166 2.11696C131.166 2.71629 130.963 3.21896 130.557 3.62495C130.151 4.03096 129.658 4.23396 129.078 4.23396ZM130.702 6.35096V22.33H127.396V6.35096H130.702ZM143.105 6.08996C144.362 6.08996 145.483 6.35096 146.469 6.87295C147.474 7.39495 148.257 8.16829 148.818 9.19296C149.379 10.2176 149.659 11.455 149.659 12.905V22.33H146.382V13.398C146.382 11.9673 146.024 10.875 145.309 10.121C144.594 9.34762 143.617 8.96096 142.38 8.96096C141.143 8.96096 140.157 9.34762 139.422 10.121C138.707 10.875 138.349 11.9673 138.349 13.398V22.33H135.043V6.35096H138.349V8.17796C138.89 7.52062 139.577 7.00829 140.408 6.64096C141.259 6.27362 142.158 6.08996 143.105 6.08996ZM160.314 6.08996C161.551 6.08996 162.644 6.34129 163.591 6.84395C164.558 7.32729 165.312 7.93629 165.853 8.67096V6.35096H169.188V22.591C169.188 24.0603 168.879 25.3653 168.26 26.506C167.641 27.666 166.742 28.5746 165.563 29.232C164.403 29.8893 163.011 30.218 161.387 30.218C159.222 30.218 157.424 29.7056 155.993 28.681C154.562 27.6756 153.75 26.303 153.557 24.563H156.834C157.085 25.3943 157.617 26.0613 158.429 26.564C159.26 27.086 160.246 27.347 161.387 27.347C162.721 27.347 163.794 26.941 164.606 26.129C165.437 25.317 165.853 24.1376 165.853 22.591V19.923C165.292 20.677 164.529 21.315 163.562 21.837C162.615 22.3396 161.532 22.591 160.314 22.591C158.922 22.591 157.646 22.243 156.486 21.547C155.345 20.8316 154.437 19.8456 153.76 18.589C153.103 17.313 152.774 15.8726 152.774 14.268C152.774 12.6633 153.103 11.2423 153.76 10.005C154.437 8.76762 155.345 7.81062 156.486 7.13395C157.646 6.43796 158.922 6.08996 160.314 6.08996ZM165.853 14.326C165.853 13.224 165.621 12.267 165.157 11.455C164.712 10.643 164.123 10.0243 163.388 9.59896C162.653 9.17362 161.861 8.96096 161.01 8.96096C160.159 8.96096 159.367 9.17362 158.632 9.59896C157.897 10.005 157.298 10.614 156.834 11.426C156.389 12.2186 156.167 13.166 156.167 14.268C156.167 15.37 156.389 16.3366 156.834 17.168C157.298 17.9993 157.897 18.6373 158.632 19.082C159.386 19.5073 160.179 19.72 161.01 19.72C161.861 19.72 162.653 19.5073 163.388 19.082C164.123 18.6566 164.712 18.038 165.157 17.226C165.621 16.3946 165.853 15.428 165.853 14.326ZM179.968 6.08996C181.206 6.08996 182.298 6.34129 183.245 6.84395C184.212 7.32729 184.966 7.93629 185.507 8.67096V6.35096H188.842V22.591C188.842 24.0603 188.533 25.3653 187.914 26.506C187.296 27.666 186.397 28.5746 185.217 29.232C184.057 29.8893 182.665 30.218 181.041 30.218C178.876 30.218 177.078 29.7056 175.647 28.681C174.217 27.6756 173.405 26.303 173.211 24.563H176.488C176.74 25.3943 177.271 26.0613 178.083 26.564C178.915 27.086 179.901 27.347 181.041 27.347C182.375 27.347 183.448 26.941 184.26 26.129C185.092 25.317 185.507 24.1376 185.507 22.591V19.923C184.947 20.677 184.183 21.315 183.216 21.837C182.269 22.3396 181.186 22.591 179.968 22.591C178.576 22.591 177.3 22.243 176.14 21.547C175 20.8316 174.091 19.8456 173.414 18.589C172.757 17.313 172.428 15.8726 172.428 14.268C172.428 12.6633 172.757 11.2423 173.414 10.005C174.091 8.76762 175 7.81062 176.14 7.13395C177.3 6.43796 178.576 6.08996 179.968 6.08996ZM185.507 14.326C185.507 13.224 185.275 12.267 184.811 11.455C184.367 10.643 183.777 10.0243 183.042 9.59896C182.308 9.17362 181.515 8.96096 180.664 8.96096C179.814 8.96096 179.021 9.17362 178.286 9.59896C177.552 10.005 176.952 10.614 176.488 11.426C176.044 12.2186 175.821 13.166 175.821 14.268C175.821 15.37 176.044 16.3366 176.488 17.168C176.952 17.9993 177.552 18.6373 178.286 19.082C179.04 19.5073 179.833 19.72 180.664 19.72C181.515 19.72 182.308 19.5073 183.042 19.082C183.777 18.6566 184.367 18.038 184.811 17.226C185.275 16.3946 185.507 15.428 185.507 14.326ZM194.867 4.23396C194.267 4.23396 193.765 4.03096 193.359 3.62495C192.953 3.21896 192.75 2.71629 192.75 2.11696C192.75 1.51762 192.953 1.01496 193.359 0.608956C193.765 0.202955 194.267 -4.51207e-05 194.867 -4.51207e-05C195.447 -4.51207e-05 195.94 0.202955 196.346 0.608956C196.752 1.01496 196.955 1.51762 196.955 2.11696C196.955 2.71629 196.752 3.21896 196.346 3.62495C195.94 4.03096 195.447 4.23396 194.867 4.23396ZM196.491 6.35096V22.33H193.185V6.35096H196.491ZM215.005 22.533C213.652 22.533 212.434 22.301 211.351 21.837C210.269 21.3536 209.418 20.677 208.799 19.807C208.181 18.937 207.871 17.922 207.871 16.762H211.409C211.487 17.632 211.825 18.3473 212.424 18.908C213.043 19.4686 213.903 19.749 215.005 19.749C216.146 19.749 217.035 19.4783 217.673 18.937C218.311 18.3763 218.63 17.661 218.63 16.791C218.63 16.1143 218.427 15.5633 218.021 15.138C217.635 14.7126 217.142 14.384 216.542 14.152C215.962 13.92 215.15 13.6686 214.106 13.398C212.792 13.05 211.719 12.702 210.887 12.354C210.075 11.9866 209.379 11.426 208.799 10.672C208.219 9.91796 207.929 8.91262 207.929 7.65595C207.929 6.49595 208.219 5.48096 208.799 4.61096C209.379 3.74096 210.191 3.07396 211.235 2.60996C212.279 2.14595 213.488 1.91395 214.86 1.91395C216.813 1.91395 218.408 2.40695 219.645 3.39295C220.902 4.35962 221.598 5.69362 221.733 7.39495H218.079C218.021 6.66029 217.673 6.03196 217.035 5.50995C216.397 4.98795 215.556 4.72695 214.512 4.72695C213.565 4.72695 212.792 4.96862 212.192 5.45196C211.593 5.93529 211.293 6.63129 211.293 7.53995C211.293 8.15862 211.477 8.67096 211.844 9.07696C212.231 9.46362 212.714 9.77296 213.294 10.005C213.874 10.237 214.667 10.4883 215.672 10.759C217.006 11.1263 218.089 11.4936 218.92 11.861C219.771 12.2283 220.486 12.7986 221.066 13.572C221.666 14.326 221.965 15.341 221.965 16.617C221.965 17.6416 221.685 18.6083 221.124 19.517C220.583 20.4256 219.781 21.1603 218.717 21.721C217.673 22.2623 216.436 22.533 215.005 22.533ZM224.764 14.268C224.764 12.6633 225.093 11.2423 225.75 10.005C226.427 8.76762 227.335 7.81062 228.476 7.13395C229.636 6.43796 230.912 6.08996 232.304 6.08996C233.561 6.08996 234.653 6.34129 235.581 6.84395C236.528 7.32729 237.282 7.93629 237.843 8.67096V6.35096H241.178V22.33H237.843V19.952C237.282 20.706 236.519 21.3343 235.552 21.837C234.585 22.3396 233.483 22.591 232.246 22.591C230.873 22.591 229.617 22.243 228.476 21.547C227.335 20.8316 226.427 19.8456 225.75 18.589C225.093 17.313 224.764 15.8726 224.764 14.268ZM237.843 14.326C237.843 13.224 237.611 12.267 237.147 11.455C236.702 10.643 236.113 10.0243 235.378 9.59896C234.643 9.17362 233.851 8.96096 233 8.96096C232.149 8.96096 231.357 9.17362 230.622 9.59896C229.887 10.005 229.288 10.614 228.824 11.426C228.379 12.2186 228.157 13.166 228.157 14.268C228.157 15.37 228.379 16.3366 228.824 17.168C229.288 17.9993 229.887 18.6373 230.622 19.082C231.376 19.5073 232.169 19.72 233 19.72C233.851 19.72 234.643 19.5073 235.378 19.082C236.113 18.6566 236.702 18.038 237.147 17.226C237.611 16.3946 237.843 15.428 237.843 14.326ZM244.418 14.268C244.418 12.6633 244.747 11.2423 245.404 10.005C246.081 8.76762 246.99 7.81062 248.13 7.13395C249.29 6.43796 250.566 6.08996 251.958 6.08996C253.215 6.08996 254.307 6.34129 255.235 6.84395C256.183 7.32729 256.937 7.93629 257.497 8.67096V6.35096H260.832V22.33H257.497V19.952C256.937 20.706 256.173 21.3343 255.206 21.837C254.24 22.3396 253.138 22.591 251.9 22.591C250.528 22.591 249.271 22.243 248.13 21.547C246.99 20.8316 246.081 19.8456 245.404 18.589C244.747 17.313 244.418 15.8726 244.418 14.268ZM257.497 14.326C257.497 13.224 257.265 12.267 256.801 11.455C256.357 10.643 255.767 10.0243 255.032 9.59896C254.298 9.17362 253.505 8.96096 252.654 8.96096C251.804 8.96096 251.011 9.17362 250.276 9.59896C249.542 10.005 248.942 10.614 248.478 11.426C248.034 12.2186 247.811 13.166 247.811 14.268C247.811 15.37 248.034 16.3366 248.478 17.168C248.942 17.9993 249.542 18.6373 250.276 19.082C251.03 19.5073 251.823 19.72 252.654 19.72C253.505 19.72 254.298 19.5073 255.032 19.082C255.767 18.6566 256.357 18.038 256.801 17.226C257.265 16.3946 257.497 15.428 257.497 14.326ZM269.032 9.04796V17.893C269.032 18.4923 269.167 18.9273 269.438 19.198C269.728 19.4493 270.211 19.575 270.888 19.575H272.918V22.33H270.308C268.819 22.33 267.678 21.982 266.886 21.286C266.093 20.59 265.697 19.459 265.697 17.893V9.04796H263.812V6.35096H265.697V2.37796H269.032V6.35096H272.918V9.04796H269.032ZM285.18 4.23396C284.581 4.23396 284.078 4.03096 283.672 3.62495C283.266 3.21896 283.063 2.71629 283.063 2.11696C283.063 1.51762 283.266 1.01496 283.672 0.608956C284.078 0.202955 284.581 -4.51207e-05 285.18 -4.51207e-05C285.76 -4.51207e-05 286.253 0.202955 286.659 0.608956C287.065 1.01496 287.268 1.51762 287.268 2.11696C287.268 2.71629 287.065 3.21896 286.659 3.62495C286.253 4.03096 285.76 4.23396 285.18 4.23396ZM286.804 6.35096V22.33H283.498V6.35096H286.804ZM299.206 6.08996C300.463 6.08996 301.584 6.35096 302.57 6.87295C303.576 7.39495 304.359 8.16829 304.919 9.19296C305.48 10.2176 305.76 11.455 305.76 12.905V22.33H302.483V13.398C302.483 11.9673 302.126 10.875 301.41 10.121C300.695 9.34762 299.719 8.96096 298.481 8.96096C297.244 8.96096 296.258 9.34762 295.523 10.121C294.808 10.875 294.45 11.9673 294.45 13.398V22.33H291.144V6.35096H294.45V8.17796C294.992 7.52062 295.678 7.00829 296.509 6.64096C297.36 6.27362 298.259 6.08996 299.206 6.08996ZM311.659 4.23396C311.06 4.23396 310.557 4.03096 310.151 3.62495C309.745 3.21896 309.542 2.71629 309.542 2.11696C309.542 1.51762 309.745 1.01496 310.151 0.608956C310.557 0.202955 311.06 -4.51207e-05 311.659 -4.51207e-05C312.239 -4.51207e-05 312.732 0.202955 313.138 0.608956C313.544 1.01496 313.747 1.51762 313.747 2.11696C313.747 2.71629 313.544 3.21896 313.138 3.62495C312.732 4.03096 312.239 4.23396 311.659 4.23396ZM313.283 6.35096V22.33H309.977V6.35096H313.283Z" fill="white"/>
</svg>
