<svg width="346" height="22" viewBox="0 0 346 22" fill="none" xmlns="http://www.w3.org/2000/svg">
<path d="M2.18505 8.25699H6.46306C7.70506 8.27232 8.60972 8.01932 9.17706 7.49799C9.75972 6.97665 10.0511 6.22532 10.0511 5.24399C10.0511 4.26265 9.75972 3.51899 9.17706 3.01299C8.60972 2.49165 7.70506 2.23099 6.46306 2.23099H2.18505V8.25699ZM5.47245e-05 0.390987H7.19906C8.85506 0.390987 10.1047 0.820321 10.9481 1.67899C11.8067 2.52232 12.2361 3.71065 12.2361 5.24399C12.2361 6.77732 11.8067 7.97332 10.9481 8.83199C10.1047 9.69065 8.85506 10.1123 7.19906 10.097H2.18505V16.813H5.47245e-05V0.390987ZM17.5131 4.92199H19.3531V7.42899H19.3991C19.8745 6.46299 20.4571 5.74999 21.1471 5.28999C21.8371 4.82999 22.7111 4.61532 23.7691 4.64599V6.71599C22.9871 6.71599 22.3201 6.82332 21.7681 7.03799C21.2161 7.25265 20.7715 7.56699 20.4341 7.98099C20.0968 8.39499 19.8515 8.90099 19.6981 9.49899C19.5448 10.0817 19.4681 10.7563 19.4681 11.523V16.813H17.5131V4.92199ZM29.253 10.879C29.253 11.5997 29.345 12.2437 29.529 12.811C29.7283 13.363 29.9967 13.8307 30.334 14.214C30.6713 14.582 31.0623 14.8657 31.507 15.065C31.967 15.2643 32.45 15.364 32.956 15.364C33.462 15.364 33.9373 15.2643 34.382 15.065C34.842 14.8657 35.2407 14.582 35.578 14.214C35.9153 13.8307 36.176 13.363 36.36 12.811C36.5593 12.2437 36.659 11.5997 36.659 10.879C36.659 10.1583 36.5593 9.52199 36.36 8.96999C36.176 8.40265 35.9153 7.92732 35.578 7.54399C35.2407 7.16065 34.842 6.86932 34.382 6.66999C33.9373 6.47065 33.462 6.37099 32.956 6.37099C32.45 6.37099 31.967 6.47065 31.507 6.66999C31.0623 6.86932 30.6713 7.16065 30.334 7.54399C29.9967 7.92732 29.7283 8.40265 29.529 8.96999C29.345 9.52199 29.253 10.1583 29.253 10.879ZM27.183 10.879C27.183 10.005 27.3057 9.19232 27.551 8.44099C27.7963 7.67432 28.1643 7.01499 28.655 6.46299C29.1457 5.89565 29.7513 5.45099 30.472 5.12899C31.1927 4.80699 32.0207 4.64599 32.956 4.64599C33.9067 4.64599 34.7347 4.80699 35.44 5.12899C36.1607 5.45099 36.7663 5.89565 37.257 6.46299C37.7477 7.01499 38.1157 7.67432 38.361 8.44099C38.6063 9.19232 38.729 10.005 38.729 10.879C38.729 11.753 38.6063 12.5657 38.361 13.317C38.1157 14.0683 37.7477 14.7277 37.257 15.295C36.7663 15.847 36.1607 16.284 35.44 16.606C34.7347 16.9127 33.9067 17.066 32.956 17.066C32.0207 17.066 31.1927 16.9127 30.472 16.606C29.7513 16.284 29.1457 15.847 28.655 15.295C28.1643 14.7277 27.7963 14.0683 27.551 13.317C27.3057 12.5657 27.183 11.753 27.183 10.879ZM44.093 4.92199H46.048V6.53199H46.094C46.416 5.87265 46.922 5.39732 47.612 5.10599C48.302 4.79932 49.061 4.64599 49.889 4.64599C50.809 4.64599 51.6064 4.81465 52.281 5.15199C52.971 5.48932 53.5384 5.94932 53.983 6.53199C54.443 7.09932 54.788 7.75865 55.018 8.50999C55.248 9.26132 55.363 10.0587 55.363 10.902C55.363 11.7453 55.248 12.5427 55.018 13.294C54.8034 14.0453 54.466 14.7047 54.006 15.272C53.5614 15.824 52.994 16.261 52.304 16.583C51.6294 16.905 50.8397 17.066 49.935 17.066C49.6437 17.066 49.314 17.0353 48.946 16.974C48.5934 16.9127 48.2407 16.813 47.888 16.675C47.5354 16.537 47.198 16.353 46.876 16.123C46.5694 15.8777 46.3087 15.5787 46.094 15.226H46.048V21.344H44.093V4.92199ZM53.293 10.764C53.293 10.212 53.2164 9.67532 53.063 9.15399C52.925 8.61732 52.7027 8.14199 52.396 7.72799C52.1047 7.31399 51.7214 6.98432 51.246 6.73899C50.786 6.49365 50.2417 6.37099 49.613 6.37099C48.9537 6.37099 48.394 6.50132 47.934 6.76199C47.474 7.02265 47.0984 7.36765 46.807 7.79699C46.5157 8.21099 46.301 8.68632 46.163 9.22299C46.0404 9.75965 45.979 10.304 45.979 10.856C45.979 11.4387 46.048 12.006 46.186 12.558C46.324 13.0947 46.5387 13.57 46.83 13.984C47.1367 14.398 47.5277 14.7353 48.003 14.996C48.4784 15.2413 49.0534 15.364 49.728 15.364C50.4027 15.364 50.9624 15.2337 51.407 14.973C51.867 14.7123 52.235 14.3673 52.511 13.938C52.787 13.5087 52.9864 13.018 53.109 12.466C53.2317 11.914 53.293 11.3467 53.293 10.764ZM68.9048 9.72899C68.8742 9.26899 68.7668 8.83199 68.5828 8.41799C68.4142 8.00399 68.1765 7.65132 67.8698 7.35999C67.5785 7.05332 67.2258 6.81565 66.8118 6.64699C66.4132 6.46299 65.9685 6.37099 65.4778 6.37099C64.9718 6.37099 64.5118 6.46299 64.0978 6.64699C63.6992 6.81565 63.3542 7.05332 63.0628 7.35999C62.7715 7.66665 62.5415 8.02699 62.3728 8.44099C62.2042 8.83965 62.1045 9.26899 62.0738 9.72899H68.9048ZM70.7908 13.041C70.5302 14.375 69.9552 15.3793 69.0658 16.054C68.1765 16.7287 67.0572 17.066 65.7078 17.066C64.7572 17.066 63.9292 16.9127 63.2238 16.606C62.5338 16.2993 61.9512 15.87 61.4758 15.318C61.0005 14.766 60.6402 14.1067 60.3948 13.34C60.1648 12.5733 60.0345 11.7377 60.0038 10.833C60.0038 9.92832 60.1418 9.10032 60.4178 8.34899C60.6938 7.59765 61.0772 6.94599 61.5678 6.39399C62.0738 5.84199 62.6642 5.41265 63.3388 5.10599C64.0288 4.79932 64.7802 4.64599 65.5928 4.64599C66.6508 4.64599 67.5248 4.86832 68.2148 5.31299C68.9202 5.74232 69.4798 6.29432 69.8938 6.96899C70.3232 7.64365 70.6145 8.37965 70.7678 9.17699C70.9365 9.97432 71.0055 10.7333 70.9748 11.454H62.0738C62.0585 11.9753 62.1198 12.4737 62.2578 12.949C62.3958 13.409 62.6182 13.823 62.9248 14.191C63.2315 14.5437 63.6225 14.8273 64.0978 15.042C64.5732 15.2567 65.1328 15.364 65.7768 15.364C66.6048 15.364 67.2795 15.1723 67.8008 14.789C68.3375 14.4057 68.6902 13.823 68.8588 13.041H70.7908ZM75.9223 4.92199H77.7623V7.42899H77.8083C78.2837 6.46299 78.8663 5.74999 79.5563 5.28999C80.2463 4.82999 81.1203 4.61532 82.1783 4.64599V6.71599C81.3963 6.71599 80.7293 6.82332 80.1773 7.03799C79.6253 7.25265 79.1807 7.56699 78.8433 7.98099C78.506 8.39499 78.2607 8.90099 78.1073 9.49899C77.954 10.0817 77.8773 10.7563 77.8773 11.523V16.813H75.9223V4.92199ZM89.3545 4.92199H91.7235V6.64699H89.3545V14.03C89.3545 14.26 89.3699 14.444 89.4005 14.582C89.4465 14.72 89.5232 14.8273 89.6305 14.904C89.7379 14.9807 89.8835 15.0343 90.0675 15.065C90.2669 15.0803 90.5199 15.088 90.8265 15.088H91.7235V16.813H90.2285C89.7225 16.813 89.2855 16.7823 88.9175 16.721C88.5649 16.6443 88.2735 16.514 88.0435 16.33C87.8289 16.146 87.6679 15.8853 87.5605 15.548C87.4532 15.2107 87.3995 14.766 87.3995 14.214V6.64699H85.3755V4.92199H87.3995V1.35699H89.3545V4.92199ZM101.554 18.4C101.324 18.9827 101.094 19.4733 100.864 19.872C100.65 20.2707 100.404 20.5927 100.128 20.838C99.8677 21.0987 99.5687 21.2827 99.2314 21.39C98.9094 21.5127 98.5337 21.574 98.1044 21.574C97.8744 21.574 97.6444 21.5587 97.4144 21.528C97.1844 21.4973 96.9621 21.4437 96.7474 21.367V19.573C96.9161 19.6497 97.1077 19.711 97.3224 19.757C97.5524 19.8183 97.7441 19.849 97.8974 19.849C98.2961 19.849 98.6257 19.7493 98.8864 19.55C99.1624 19.366 99.3694 19.0977 99.5074 18.745L100.312 16.744L95.5974 4.92199H97.8054L101.278 14.651H101.324L104.659 4.92199H106.729L101.554 18.4ZM120.836 0.390987H122.791V6.53199H122.837C123.159 5.87265 123.665 5.39732 124.355 5.10599C125.045 4.79932 125.804 4.64599 126.632 4.64599C127.552 4.64599 128.349 4.81465 129.024 5.15199C129.714 5.48932 130.281 5.94932 130.726 6.53199C131.186 7.09932 131.531 7.75865 131.761 8.50999C131.991 9.26132 132.106 10.0587 132.106 10.902C132.106 11.7453 131.991 12.5427 131.761 13.294C131.546 14.0453 131.209 14.7047 130.749 15.272C130.304 15.824 129.737 16.261 129.047 16.583C128.372 16.905 127.582 17.066 126.678 17.066C126.386 17.066 126.057 17.0353 125.689 16.974C125.336 16.9127 124.983 16.813 124.631 16.675C124.278 16.537 123.941 16.353 123.619 16.123C123.312 15.8777 123.051 15.5787 122.837 15.226H122.791V16.813H120.836V0.390987ZM130.036 10.764C130.036 10.212 129.959 9.67532 129.806 9.15399C129.668 8.61732 129.445 8.14199 129.139 7.72799C128.847 7.31399 128.464 6.98432 127.989 6.73899C127.529 6.49365 126.984 6.37099 126.356 6.37099C125.696 6.37099 125.137 6.50132 124.677 6.76199C124.217 7.02265 123.841 7.36765 123.55 7.79699C123.258 8.21099 123.044 8.68632 122.906 9.22299C122.783 9.75965 122.722 10.304 122.722 10.856C122.722 11.4387 122.791 12.006 122.929 12.558C123.067 13.0947 123.281 13.57 123.573 13.984C123.879 14.398 124.27 14.7353 124.746 14.996C125.221 15.2413 125.796 15.364 126.471 15.364C127.145 15.364 127.705 15.2337 128.15 14.973C128.61 14.7123 128.978 14.3673 129.254 13.938C129.53 13.5087 129.729 13.018 129.852 12.466C129.974 11.914 130.036 11.3467 130.036 10.764ZM142.06 18.4C141.83 18.9827 141.6 19.4733 141.37 19.872C141.155 20.2707 140.91 20.5927 140.634 20.838C140.373 21.0987 140.074 21.2827 139.737 21.39C139.415 21.5127 139.039 21.574 138.61 21.574C138.38 21.574 138.15 21.5587 137.92 21.528C137.69 21.4973 137.467 21.4437 137.253 21.367V19.573C137.421 19.6497 137.613 19.711 137.828 19.757C138.058 19.8183 138.249 19.849 138.403 19.849C138.801 19.849 139.131 19.7493 139.392 19.55C139.668 19.366 139.875 19.0977 140.013 18.745L140.818 16.744L136.103 4.92199H138.311L141.784 14.651H141.83L145.165 4.92199H147.235L142.06 18.4ZM165.32 2.23099H159.846V0.390987H172.979V2.23099H167.505V16.813H165.32V2.23099ZM181.701 8.37199L176.296 0.390987H178.918L183.012 6.80799L187.29 0.390987H189.728L184.3 8.37199L190.073 16.813H187.405L182.989 10.028L178.435 16.813H175.997L181.701 8.37199ZM198.568 2.23099H193.094V0.390987H206.227V2.23099H200.753V16.813H198.568V2.23099ZM231.976 5.33599C231.731 4.17065 231.186 3.29665 230.343 2.71399C229.515 2.13132 228.526 1.83999 227.376 1.83999C226.395 1.83999 225.551 2.02399 224.846 2.39199C224.156 2.75999 223.581 3.25832 223.121 3.88699C222.676 4.50032 222.347 5.20565 222.132 6.00299C221.917 6.80032 221.81 7.62832 221.81 8.48699C221.81 9.42232 221.917 10.3117 222.132 11.155C222.347 11.983 222.676 12.7113 223.121 13.34C223.581 13.9533 224.164 14.444 224.869 14.812C225.574 15.18 226.418 15.364 227.399 15.364C228.12 15.364 228.756 15.249 229.308 15.019C229.875 14.7737 230.358 14.444 230.757 14.03C231.171 13.6007 231.493 13.0947 231.723 12.512C231.953 11.9293 232.091 11.3007 232.137 10.626H234.322C234.107 12.696 233.394 14.306 232.183 15.456C230.972 16.606 229.316 17.181 227.215 17.181C225.942 17.181 224.831 16.9663 223.88 16.537C222.929 16.0923 222.14 15.4867 221.511 14.72C220.882 13.9533 220.407 13.0487 220.085 12.006C219.778 10.9633 219.625 9.84399 219.625 8.64799C219.625 7.45199 219.794 6.33265 220.131 5.28999C220.468 4.23199 220.959 3.31199 221.603 2.52999C222.262 1.74799 223.075 1.13465 224.041 0.689987C225.022 0.229988 226.142 -1.18613e-05 227.399 -1.18613e-05C228.258 -1.18613e-05 229.07 0.114988 229.837 0.344988C230.604 0.574988 231.286 0.912321 231.884 1.35699C232.482 1.80165 232.98 2.36132 233.379 3.03599C233.778 3.69532 234.038 4.46199 234.161 5.33599H231.976ZM240.019 0.390987H247.747C249.311 0.390987 250.53 0.774321 251.404 1.54099C252.293 2.30765 252.738 3.35799 252.738 4.69199C252.738 5.68865 252.508 6.56265 252.048 7.31399C251.603 8.06532 250.882 8.57899 249.886 8.85499V8.90099C250.361 8.99299 250.744 9.14632 251.036 9.36099C251.342 9.57565 251.58 9.83632 251.749 10.143C251.933 10.4343 252.063 10.764 252.14 11.132C252.232 11.5 252.301 11.8833 252.347 12.282C252.377 12.6807 252.4 13.087 252.416 13.501C252.431 13.915 252.469 14.3213 252.531 14.72C252.592 15.1187 252.676 15.502 252.784 15.87C252.906 16.2227 253.083 16.537 253.313 16.813H250.875C250.721 16.6443 250.614 16.4143 250.553 16.123C250.507 15.8317 250.476 15.5097 250.461 15.157C250.445 14.789 250.43 14.398 250.415 13.984C250.399 13.57 250.353 13.1637 250.277 12.765C250.215 12.3663 250.139 11.9907 250.047 11.638C249.955 11.27 249.809 10.9557 249.61 10.695C249.41 10.419 249.15 10.2043 248.828 10.051C248.506 9.88232 248.076 9.79799 247.54 9.79799H242.204V16.813H240.019V0.390987ZM246.758 7.95799C247.264 7.95799 247.747 7.91965 248.207 7.84299C248.667 7.76632 249.065 7.62065 249.403 7.40599C249.755 7.17599 250.031 6.87699 250.231 6.50899C250.445 6.12565 250.553 5.63499 250.553 5.03699C250.553 4.20899 250.323 3.53432 249.863 3.01299C249.403 2.49165 248.659 2.23099 247.632 2.23099H242.204V7.95799H246.758ZM258.754 0.390987H270.093V2.23099H260.939V7.45199H269.472V9.29199H260.939V14.973H270.162V16.813H258.754V0.390987ZM278.633 10.028H284.199L281.462 2.36899H281.416L278.633 10.028ZM280.266 0.390987H282.681L289.098 16.813H286.683L284.889 11.868H277.943L276.103 16.813H273.872L280.266 0.390987ZM295.323 2.23099H289.849V0.390987H302.982V2.23099H297.508V16.813H295.323V2.23099ZM307.886 0.390987H310.071V16.813H307.886V0.390987ZM323.199 16.813H320.715L314.942 0.390987H317.288L321.98 14.628H322.026L326.764 0.390987H329.041L323.199 16.813ZM333.787 0.390987H345.126V2.23099H335.972V7.45199H344.505V9.29199H335.972V14.973H345.195V16.813H333.787V0.390987Z" fill="white"/>
</svg>
