<svg width="1080" height="1920" viewBox="0 0 1080 1920" fill="none" xmlns="http://www.w3.org/2000/svg" xmlns:xlink="http://www.w3.org/1999/xlink">
<g clip-path="url(#clip0_2_7)">
<rect width="1080" height="1920" fill="white"></rect>
<rect width="1080" height="1920" fill="url(#pattern0_2_7)"></rect>
<rect x="720" y="81" width="274.5" height="97.5" fill="url(#pattern1_2_7)"></rect>
<rect x="68" y="81" width="275" height="101.5" fill="url(#pattern2_2_7)"></rect>
<rect x="857" y="112" width="20" height="36" fill="url(#pattern3_2_7)"></rect>
<rect x="882" y="112" width="27" height="36" fill="url(#pattern4_2_7)"></rect>
<rect x="914" y="112" width="27" height="36" fill="url(#pattern5_2_7)"></rect>
<rect x="224" y="112" width="20" height="36" fill="url(#pattern6_2_7)"></rect>
<rect x="249" y="112" width="27" height="36" fill="url(#pattern7_2_7)"></rect>
<rect x="442" y="1832" width="278" height="123" fill="url(#pattern8_2_7)"></rect>
<rect x="376" y="1713" width="278" height="123" fill="url(#pattern9_2_7)"></rect>
<rect x="442" y="1592" width="278" height="123" fill="url(#pattern10_2_7)"></rect>
<rect x="376" y="1471" width="278" height="123" fill="url(#pattern11_2_7)"></rect>
<rect x="376" y="704" width="278" height="123" fill="url(#pattern12_2_7)"></rect>
<rect x="477.649" y="-4.59789" width="151" height="376" transform="rotate(3.80687 477.649 -4.59789)" fill="url(#pattern13_2_7)"></rect>
</g>
<defs>
<pattern id="pattern0_2_7" patternContentUnits="objectBoundingBox" width="1" height="1">
<use xlink:href="#image0_2_7" transform="scale(0.000925926 0.000520833)"></use>
</pattern>
<pattern id="pattern1_2_7" patternContentUnits="objectBoundingBox" width="1" height="1">
<use xlink:href="#image1_2_7" transform="scale(0.00182149 0.00512821)"></use>
</pattern>
<pattern id="pattern2_2_7" patternContentUnits="objectBoundingBox" width="1" height="1">
<use xlink:href="#image2_2_7" transform="scale(0.00181818 0.00492611)"></use>
</pattern>
<pattern id="pattern3_2_7" patternContentUnits="objectBoundingBox" width="1" height="1">
<use xlink:href="#image3_2_7" transform="scale(0.00606061 0.003367)"></use>
</pattern>
<pattern id="pattern4_2_7" patternContentUnits="objectBoundingBox" width="1" height="1">
<use xlink:href="#image4_2_7" transform="matrix(0.00448934 0 0 0.003367 -0.00505051 0)"></use>
</pattern>
<pattern id="pattern5_2_7" patternContentUnits="objectBoundingBox" width="1" height="1">
<use xlink:href="#image4_2_7" transform="matrix(0.00448934 0 0 0.003367 -0.00505051 0)"></use>
</pattern>
<pattern id="pattern6_2_7" patternContentUnits="objectBoundingBox" width="1" height="1">
<use xlink:href="#image3_2_7" transform="scale(0.00606061 0.003367)"></use>
</pattern>
<pattern id="pattern7_2_7" patternContentUnits="objectBoundingBox" width="1" height="1">
<use xlink:href="#image4_2_7" transform="matrix(0.00448934 0 0 0.003367 -0.00505051 0)"></use>
</pattern>
<pattern id="pattern8_2_7" patternContentUnits="objectBoundingBox" width="1" height="1">
<use xlink:href="#image5_2_7" transform="matrix(0.000960615 0 0 0.00217115 0 -0.000449068)"></use>
</pattern>
<pattern id="pattern9_2_7" patternContentUnits="objectBoundingBox" width="1" height="1">
<use xlink:href="#image5_2_7" transform="matrix(0.000960615 0 0 0.00217115 0 -0.000449068)"></use>
</pattern>
<pattern id="pattern10_2_7" patternContentUnits="objectBoundingBox" width="1" height="1">
<use xlink:href="#image5_2_7" transform="matrix(0.000960615 0 0 0.00217115 0 -0.000449068)"></use>
</pattern>
<pattern id="pattern11_2_7" patternContentUnits="objectBoundingBox" width="1" height="1">
<use xlink:href="#image5_2_7" transform="matrix(0.000960615 0 0 0.00217115 0 -0.000449068)"></use>
</pattern>
<pattern id="pattern12_2_7" patternContentUnits="objectBoundingBox" width="1" height="1">
<use xlink:href="#image5_2_7" transform="matrix(0.000960615 0 0 0.00217115 0 -0.000449068)"></use>
</pattern>
<pattern id="pattern13_2_7" patternContentUnits="objectBoundingBox" width="1" height="1">
<use xlink:href="#image6_2_7" transform="matrix(0.00471698 0 0 0.00189432 0 -0.00104752)"></use>
</pattern>
<clipPath id="clip0_2_7">
<rect width="1080" height="1920" fill="white"></rect>
</clipPath>
<image id="image0_2_7" width="1080" height="1920" preserveAspectRatio="none"></image>
<image id="image1_2_7" width="549" height="195" preserveAspectRatio="none"></image>
<image id="image2_2_7" width="550" height="203" preserveAspectRatio="none"></image>
<image id="image3_2_7" width="165" height="297" preserveAspectRatio="none"></image>
<image id="image4_2_7" width="225" height="297" preserveAspectRatio="none"></image>
<image id="image5_2_7" width="1041" height="461" preserveAspectRatio="none"></image>
<image id="image6_2_7" width="212" height="529" preserveAspectRatio="none"></image>
</defs>
</svg>