<svg width="479" height="115" viewBox="0 0 479 115" fill="none" xmlns="http://www.w3.org/2000/svg">
<g filter="url(#filter0_d_7_6)">
<path d="M76.576 78.456C75.12 79.688 73.216 80.696 70.864 81.48C68.624 82.152 65.992 82.488 62.968 82.488C58.936 82.488 55.576 81.984 52.888 80.976C50.312 79.968 48.632 78.232 47.848 75.768C44.712 65.912 42.136 57.96 40.12 51.912C38.104 45.752 36.536 40.376 35.416 35.784H34.576C34.24 42.392 33.96 48.44 33.736 53.928C33.624 59.304 33.512 64.568 33.4 69.72C33.4 74.872 33.288 80.08 33.064 85.344C32.952 90.608 32.728 96.432 32.392 102.816C30.936 103.376 29.032 103.824 26.68 104.16C24.328 104.608 21.976 104.832 19.624 104.832C14.696 104.832 10.832 104.048 8.03198 102.48C5.34398 100.912 3.99998 98.056 3.99998 93.912L8.87198 8.23203C9.76798 6.77603 11.728 5.20803 14.752 3.52803C17.776 1.84803 22.032 1.00803 27.52 1.00803C33.456 1.00803 38.104 1.96003 41.464 3.86403C44.824 5.65603 47.288 8.62403 48.856 12.768C49.864 15.456 50.928 18.536 52.048 22.008C53.28 25.48 54.456 29.064 55.576 32.76C56.808 36.456 57.984 40.152 59.104 43.848C60.224 47.432 61.232 50.68 62.128 53.592H62.968C65.656 44.184 68.344 35.112 71.032 26.376C73.72 17.528 76.184 10.136 78.424 4.20003C80.104 3.30403 82.232 2.57603 84.808 2.01603C87.496 1.34403 90.464 1.00803 93.712 1.00803C99.2 1.00803 103.68 1.84803 107.152 3.52803C110.624 5.09603 112.64 7.39203 113.2 10.416C113.648 12.656 114.096 16.128 114.544 20.832C115.104 25.424 115.664 30.632 116.224 36.456C116.784 42.28 117.344 48.44 117.904 54.936C118.464 61.432 118.968 67.704 119.416 73.752C119.976 79.688 120.424 85.176 120.76 90.216C121.096 95.144 121.32 98.952 121.432 101.64C119.528 102.76 117.512 103.544 115.384 103.992C113.368 104.552 110.736 104.832 107.488 104.832C103.232 104.832 99.648 104.104 96.736 102.648C93.824 101.192 92.256 98.336 92.032 94.08C91.36 81.872 90.912 70.896 90.688 61.152C90.576 51.408 90.352 43.232 90.016 36.624H89.176C88.056 40.992 86.432 46.48 84.304 53.088C82.176 59.696 79.6 68.152 76.576 78.456ZM230.275 65.856C230.275 71.904 229.211 77.448 227.083 82.488C225.067 87.416 222.099 91.672 218.179 95.256C214.259 98.728 209.499 101.416 203.899 103.32C198.299 105.224 191.971 106.176 184.915 106.176C177.859 106.176 171.531 105.224 165.931 103.32C160.331 101.416 155.571 98.728 151.651 95.256C147.731 91.672 144.707 87.416 142.579 82.488C140.563 77.448 139.555 71.904 139.555 65.856V1.68004C140.787 1.45603 142.747 1.17603 145.435 0.840037C148.123 0.392036 150.699 0.168036 153.163 0.168036C155.739 0.168036 157.979 0.392036 159.883 0.840037C161.899 1.17603 163.579 1.84803 164.923 2.85603C166.267 3.86403 167.275 5.26403 167.947 7.05604C168.619 8.84803 168.955 11.2 168.955 14.112V65.352C168.955 70.728 170.411 74.928 173.323 77.952C176.347 80.976 180.211 82.488 184.915 82.488C189.731 82.488 193.595 80.976 196.507 77.952C199.419 74.928 200.875 70.728 200.875 65.352V1.68004C202.107 1.45603 204.067 1.17603 206.755 0.840037C209.443 0.392036 212.019 0.168036 214.483 0.168036C217.059 0.168036 219.299 0.392036 221.203 0.840037C223.219 1.17603 224.899 1.84803 226.243 2.85603C227.587 3.86403 228.595 5.26403 229.267 7.05604C229.939 8.84803 230.275 11.2 230.275 14.112V65.856ZM267.245 103.992C262.429 103.992 258.621 102.592 255.821 99.792C253.021 96.992 251.621 93.184 251.621 88.368V1.51203C252.853 1.28803 254.813 1.00803 257.501 0.672029C260.189 0.224028 262.765 2.76566e-05 265.229 2.76566e-05C267.805 2.76566e-05 270.045 0.224028 271.949 0.672029C273.965 1.00803 275.645 1.68003 276.989 2.68803C278.333 3.69603 279.341 5.09603 280.013 6.88803C280.685 8.68003 281.021 11.032 281.021 13.944V80.304H319.493C320.277 81.536 321.005 83.216 321.677 85.344C322.349 87.36 322.685 89.488 322.685 91.728C322.685 96.208 321.733 99.4 319.829 101.304C317.925 103.096 315.405 103.992 312.269 103.992H267.245ZM361.067 4.70404C362.971 3.58403 365.827 2.52003 369.635 1.51203C373.555 0.504028 377.475 2.76566e-05 381.395 2.76566e-05C386.995 2.76566e-05 391.923 0.84003 396.179 2.52004C400.547 4.08804 403.347 6.60803 404.579 10.08C406.595 15.904 408.779 22.68 411.131 30.408C413.483 38.136 415.835 46.144 418.187 54.432C420.539 62.608 422.835 70.728 425.075 78.792C427.315 86.744 429.275 93.8 430.955 99.96C429.611 101.528 427.595 102.76 424.907 103.656C422.219 104.664 419.027 105.168 415.331 105.168C412.643 105.168 410.347 104.944 408.443 104.496C406.651 104.048 405.139 103.376 403.907 102.48C402.787 101.584 401.835 100.408 401.051 98.952C400.379 97.496 399.763 95.816 399.203 93.912L396.179 82.32H365.771C364.875 85.68 363.979 89.152 363.083 92.736C362.187 96.32 361.291 99.792 360.395 103.152C358.827 103.712 357.147 104.16 355.355 104.496C353.675 104.944 351.603 105.168 349.139 105.168C343.427 105.168 339.171 104.216 336.371 102.312C333.683 100.296 332.339 97.552 332.339 94.08C332.339 92.512 332.563 90.944 333.011 89.376C333.459 87.808 333.963 85.96 334.523 83.832C335.307 80.808 336.371 77.056 337.715 72.576C339.171 68.096 340.739 63.28 342.419 58.128C344.099 52.864 345.891 47.488 347.795 42C349.699 36.512 351.491 31.36 353.171 26.544C354.851 21.616 356.363 17.248 357.707 13.44C359.163 9.63203 360.283 6.72003 361.067 4.70404ZM381.227 26.376C379.659 31.08 377.867 36.344 375.851 42.168C373.947 47.88 372.211 53.704 370.643 59.64H391.475C389.907 53.592 388.283 47.712 386.603 42C385.035 36.176 383.579 30.968 382.235 26.376H381.227ZM474.123 102.816C472.891 103.152 470.931 103.488 468.243 103.824C465.667 104.16 463.091 104.328 460.515 104.328C457.939 104.328 455.643 104.104 453.627 103.656C451.723 103.32 450.099 102.648 448.755 101.64C447.411 100.632 446.403 99.232 445.731 97.44C445.059 95.648 444.723 93.296 444.723 90.384V1.68004C445.955 1.45603 447.915 1.17603 450.603 0.840037C453.291 0.392036 455.867 0.168036 458.331 0.168036C460.907 0.168036 463.147 0.392036 465.051 0.840037C467.067 1.17603 468.747 1.84803 470.091 2.85603C471.435 3.86403 472.443 5.26403 473.115 7.05604C473.787 8.84803 474.123 11.2 474.123 14.112V102.816Z" fill="white"/>
</g>
<defs>
<filter id="filter0_d_7_6" x="0" y="0" width="478.123" height="114.176" filterUnits="userSpaceOnUse" color-interpolation-filters="sRGB">
<feFlood flood-opacity="0" result="BackgroundImageFix"/>
<feColorMatrix in="SourceAlpha" type="matrix" values="0 0 0 0 0 0 0 0 0 0 0 0 0 0 0 0 0 0 127 0" result="hardAlpha"/>
<feOffset dy="4"/>
<feGaussianBlur stdDeviation="2"/>
<feComposite in2="hardAlpha" operator="out"/>
<feColorMatrix type="matrix" values="0 0 0 0 0 0 0 0 0 0 0 0 0 0 0 0 0 0 0.25 0"/>
<feBlend mode="normal" in2="BackgroundImageFix" result="effect1_dropShadow_7_6"/>
<feBlend mode="normal" in="SourceGraphic" in2="effect1_dropShadow_7_6" result="shape"/>
</filter>
</defs>
</svg>
